<?xml version="1.0" encoding="utf-8"?>
<!-- Designed by Vexels.com - 2020 All Rights Reserved - https://vexels.com/terms-and-conditions/  -->
<svg version="1.1" id="Capa_1" xmlns="http://www.w3.org/2000/svg" xmlns:xlink="http://www.w3.org/1999/xlink" x="0px" y="0px"
	 viewBox="0 0 1200 1200" enable-background="new 0 0 1200 1200" xml:space="preserve">
<g>
	<linearGradient id="SVGID_1_" gradientUnits="userSpaceOnUse" x1="73.1668" y1="856.4969" x2="856.5007" y2="73.163">
		<stop  offset="0" style="stop-color:#2964AA"/>
		<stop  offset="1" style="stop-color:#2695CF"/>
	</linearGradient>
	<polygon fill="url(#SVGID_1_)" points="1060.947,381.711 1060.947,277.609 600.003,74.638 139.061,277.609 139.061,381.707 
		600,176.039 	"/>
	<linearGradient id="SVGID_2_" gradientUnits="userSpaceOnUse" x1="254.2306" y1="1037.5609" x2="1037.5646" y2="254.2269">
		<stop  offset="0" style="stop-color:#2964AA"/>
		<stop  offset="1" style="stop-color:#2695CF"/>
	</linearGradient>
	<path fill="url(#SVGID_2_)" d="M914.409,730.385l131.941,42.473c3.847,1.238,6.628,4.571,7.142,8.57
		c0.514,3.981-1.314,7.923-4.704,10.094l-55.287,35.404l31.195,31.214c4.075,4.057,4.075,10.646,0,14.703l-42.146,42.146
		c-4.038,4.076-10.665,4.076-14.703,0l-31.214-31.195l-35.423,55.287c-1.924,3.009-5.237,4.78-8.76,4.78
		c-0.438,0-0.895-0.019-1.333-0.076c-4-0.533-7.332-3.295-8.57-7.141L862.5,874.374c-56.298,52.801-152.92,87.723-262.515,87.723
		c-173.356,0-314.396-87.347-314.396-194.735V526.564l-146.528-65.38v461.207l460.943,202.971l460.944-202.971V461.18
		l-146.538,65.384V730.385z"/>
	<path fill="#FFFFFF" d="M599.984,852.718c-125.412,0-233.596-45.825-284.017-111.76v26.405
		c0,90.618,127.405,164.356,284.017,164.356c109.702,0,205.018-36.204,252.317-89.023l-17.846-55.431
		C776.916,827.358,693.241,852.718,599.984,852.718z"/>
	<path fill="#FFFFFF" d="M599.984,822.339c91.561,0,173.096-25.219,225.077-64.257l-14.066-43.691
		c-1.2-3.714-0.21-7.77,2.552-10.532c2.762-2.743,6.818-3.733,10.532-2.552l42.354,13.634
		c11.366-17.747,17.597-36.925,17.597-56.932V540.12L600,666.852L315.967,540.119v117.89
		C315.967,748.627,443.372,822.339,599.984,822.339z"/>
	<polygon fill="#FFFFFF" points="600,211.357 129.155,421.446 600.013,624.902 1070.844,421.446 	"/>
	<polygon fill="#2964AA" points="1149.999,421.446 914.409,526.564 914.409,526.565 1060.947,461.18 1149.999,421.446 	"/>
	<polygon fill="#2964AA" points="285.588,526.564 50.001,421.446 50,421.446 139.061,461.184 285.588,526.564 	"/>
	<polygon fill="#2964AA" points="884.03,540.12 884.03,540.12 600,666.852 315.967,540.118 315.967,540.119 600,666.852 	"/>
	<polygon fill="#2964AA" points="600,211.356 129.154,421.445 129.155,421.446 600,211.357 1070.844,421.446 1070.845,421.445 	"/>
	<linearGradient id="SVGID_3_" gradientUnits="userSpaceOnUse" x1="50.0004" y1="401.5764" x2="1149.9998" y2="401.5764">
		<stop  offset="0" style="stop-color:#2964AA"/>
		<stop  offset="1" style="stop-color:#2695CF"/>
	</linearGradient>
	<polygon fill="url(#SVGID_3_)" points="139.061,381.707 50,421.445 50.001,421.446 139.061,381.708 	"/>
	<linearGradient id="SVGID_4_" gradientUnits="userSpaceOnUse" x1="50.0006" y1="401.5781" x2="1149.9999" y2="401.5781">
		<stop  offset="0" style="stop-color:#2964AA"/>
		<stop  offset="1" style="stop-color:#2695CF"/>
	</linearGradient>
	<polygon fill="url(#SVGID_4_)" points="1149.999,421.446 1150,421.445 1060.947,381.711 1060.947,381.711 	"/>
	<linearGradient id="SVGID_5_" gradientUnits="userSpaceOnUse" x1="377.6747" y1="1161.0049" x2="1161.0087" y2="377.6709">
		<stop  offset="0" style="stop-color:#2964AA"/>
		<stop  offset="1" style="stop-color:#2695CF"/>
	</linearGradient>
	<polygon fill="url(#SVGID_5_)" points="899.225,658.009 899.225,725.497 914.409,730.385 914.409,526.565 899.225,533.34 	"/>
	<linearGradient id="SVGID_6_" gradientUnits="userSpaceOnUse" x1="50.0006" y1="628.4748" x2="1149.9999" y2="628.4748">
		<stop  offset="0" style="stop-color:#2964AA"/>
		<stop  offset="1" style="stop-color:#2695CF"/>
	</linearGradient>
	<polygon fill="url(#SVGID_6_)" points="899.225,658.009 899.225,725.497 914.409,730.385 914.409,526.565 899.225,533.34 	"/>
	<linearGradient id="SVGID_7_" gradientUnits="userSpaceOnUse" x1="99.1914" y1="882.5217" x2="882.5254" y2="99.1877">
		<stop  offset="0" style="stop-color:#2964AA"/>
		<stop  offset="1" style="stop-color:#2695CF"/>
	</linearGradient>
	<polygon fill="url(#SVGID_7_)" points="600,176.039 1060.947,381.711 1060.947,381.711 600,176.039 139.061,381.707 
		139.061,381.708 	"/>
	<linearGradient id="SVGID_8_" gradientUnits="userSpaceOnUse" x1="50.0006" y1="278.875" x2="1149.9999" y2="278.875">
		<stop  offset="0" style="stop-color:#2964AA"/>
		<stop  offset="1" style="stop-color:#2695CF"/>
	</linearGradient>
	<polygon fill="url(#SVGID_8_)" points="600,176.039 1060.947,381.711 1060.947,381.711 600,176.039 139.061,381.707 
		139.061,381.708 	"/>
	<linearGradient id="SVGID_9_" gradientUnits="userSpaceOnUse" x1="245.5915" y1="1028.9218" x2="1028.9255" y2="245.5878">
		<stop  offset="0" style="stop-color:#2964AA"/>
		<stop  offset="1" style="stop-color:#2695CF"/>
	</linearGradient>
	<path fill="url(#SVGID_9_)" d="M599.991,946.906c-165.243,0-299.206-80.378-299.206-179.533V658.009V533.345l-15.197-6.781v240.798
		c0,107.388,141.04,194.735,314.396,194.735c109.596,0,206.217-34.922,262.515-87.723l-5.01-15.562
		C805.36,911.54,709.579,946.906,599.991,946.906z"/>
	<linearGradient id="SVGID_10_" gradientUnits="userSpaceOnUse" x1="50.0006" y1="744.3307" x2="1149.9999" y2="744.3307">
		<stop  offset="0" style="stop-color:#2964AA"/>
		<stop  offset="1" style="stop-color:#2695CF"/>
	</linearGradient>
	<path fill="url(#SVGID_10_)" d="M599.991,946.906c-165.243,0-299.206-80.378-299.206-179.533V658.009V533.345l-15.197-6.781
		v240.798c0,107.388,141.04,194.735,314.396,194.735c109.596,0,206.217-34.922,262.515-87.723l-5.01-15.562
		C805.36,911.54,709.579,946.906,599.991,946.906z"/>
	<path fill="#FFFFFF" d="M300.785,767.373c0,99.155,133.962,179.533,299.206,179.533c109.588,0,205.369-35.365,257.499-88.094
		l-5.188-16.117c-47.299,52.819-142.615,89.023-252.317,89.023c-156.612,0-284.017-73.738-284.017-164.356v-26.405
		c50.421,65.935,158.605,111.76,284.017,111.76c93.257,0,176.931-25.36,234.471-65.453l-9.395-29.182
		c-51.981,39.038-133.516,64.257-225.077,64.257c-156.612,0-284.017-73.712-284.017-164.329v-117.89l-15.182-6.774v124.664V767.373z
		"/>
	<linearGradient id="SVGID_11_" gradientUnits="userSpaceOnUse" x1="50.0006" y1="740.1251" x2="1149.9999" y2="740.1251">
		<stop  offset="0" style="stop-color:#2964AA"/>
		<stop  offset="1" style="stop-color:#2695CF"/>
	</linearGradient>
	<path fill="url(#SVGID_11_)" d="M300.785,767.373c0,99.155,133.962,179.533,299.206,179.533
		c109.588,0,205.369-35.365,257.499-88.094l-5.188-16.117c-47.299,52.819-142.615,89.023-252.317,89.023
		c-156.612,0-284.017-73.738-284.017-164.356v-26.405c50.421,65.935,158.605,111.76,284.017,111.76
		c93.257,0,176.931-25.36,234.471-65.453l-9.395-29.182c-51.981,39.038-133.516,64.257-225.077,64.257
		c-156.612,0-284.017-73.712-284.017-164.329v-117.89l-15.182-6.774v124.664V767.373z"/>
	<path fill="#FFFFFF" d="M866.433,714.941l32.792,10.556v-67.488V533.34l-15.195,6.78v117.889
		C884.03,678.016,877.799,697.193,866.433,714.941z"/>
	<linearGradient id="SVGID_12_" gradientUnits="userSpaceOnUse" x1="50.0006" y1="629.4182" x2="1149.9999" y2="629.4182">
		<stop  offset="0" style="stop-color:#2964AA"/>
		<stop  offset="1" style="stop-color:#2695CF"/>
	</linearGradient>
	<path fill="url(#SVGID_12_)" d="M866.433,714.941l32.792,10.556v-67.488V533.34l-15.195,6.78v117.889
		C884.03,678.016,877.799,697.193,866.433,714.941z"/>
	<polygon fill="#FFFFFF" points="600.013,624.902 129.155,421.446 129.154,421.446 600,631.534 1070.846,421.446 1070.844,421.446 	
		"/>
	<linearGradient id="SVGID_13_" gradientUnits="userSpaceOnUse" x1="50.0006" y1="526.4899" x2="1149.9999" y2="526.4899">
		<stop  offset="0" style="stop-color:#2964AA"/>
		<stop  offset="1" style="stop-color:#2695CF"/>
	</linearGradient>
	<polygon fill="url(#SVGID_13_)" points="600.013,624.902 129.155,421.446 129.154,421.446 600,631.534 1070.846,421.446 
		1070.844,421.446 	"/>
	<path fill="#2964AA" d="M285.588,526.564L285.588,526.564l15.197,6.781l15.182,6.774v-0.001L600,666.852L884.03,540.12v0
		l15.195-6.78l15.184-6.775v-0.001l235.589-105.118l-89.052-39.734L600,176.039L139.061,381.708l-89.059,39.738L285.588,526.564z
		 M1070.846,421.446L600,631.534L129.154,421.446l0.001,0l-0.001,0L600,211.356L1070.846,421.446l-0.001,0L1070.846,421.446z"/>
	<linearGradient id="SVGID_14_" gradientUnits="userSpaceOnUse" x1="50.0012" y1="421.4455" x2="1149.9988" y2="421.4455">
		<stop  offset="0" style="stop-color:#2964AA"/>
		<stop  offset="1" style="stop-color:#2695CF"/>
	</linearGradient>
	<path fill="url(#SVGID_14_)" d="M285.588,526.564L285.588,526.564l15.197,6.781l15.182,6.774v-0.001L600,666.852L884.03,540.12v0
		l15.195-6.78l15.184-6.775v-0.001l235.589-105.118l-89.052-39.734L600,176.039L139.061,381.708l-89.059,39.738L285.588,526.564z
		 M1070.846,421.446L600,631.534L129.154,421.446l0.001,0l-0.001,0L600,211.356L1070.846,421.446l-0.001,0L1070.846,421.446z"/>
	<path fill="#FFFFFF" d="M837.011,727.322l58.582,181.954l30.491-47.593c1.695-2.647,4.513-4.38,7.637-4.723
		c3.104-0.286,6.246,0.762,8.475,2.99l33.005,32.985l27.444-27.444l-32.985-33.004c-2.229-2.228-3.333-5.333-2.99-8.475
		c0.343-3.123,2.076-5.942,4.723-7.637l47.593-30.472L837.011,727.322z"/>
	<linearGradient id="SVGID_15_" gradientUnits="userSpaceOnUse" x1="493.9184" y1="1277.2485" x2="1277.2523" y2="493.9146">
		<stop  offset="0" style="stop-color:#2964AA"/>
		<stop  offset="1" style="stop-color:#2695CF"/>
	</linearGradient>
	<path fill="url(#SVGID_15_)" d="M1043.174,782.753l-66.172,42.385l40.349,40.349l-42.157,42.157l-40.349-40.349l-42.389,66.176
		l-21.669-67.313c-2.657,2.783-5.416,5.523-8.287,8.216l20.047,62.269c1.238,3.847,4.571,6.608,8.57,7.141
		c0.438,0.057,0.895,0.076,1.333,0.076c3.523,0,6.837-1.771,8.76-4.78l35.423-55.287l31.214,31.195
		c4.038,4.076,10.665,4.076,14.703,0l42.146-42.146c4.075-4.057,4.075-10.646,0-14.703l-31.195-31.214l55.287-35.404
		c3.39-2.171,5.218-6.113,4.704-10.094c-0.514-3.999-3.295-7.332-7.142-8.57l-131.941-42.473v10.918L1043.174,782.753z"/>
	<linearGradient id="SVGID_16_" gradientUnits="userSpaceOnUse" x1="810.4933" y1="837.1228" x2="1053.5784" y2="837.1228">
		<stop  offset="0" style="stop-color:#2695CF"/>
		<stop  offset="0.8467" style="stop-color:#2970B2"/>
		<stop  offset="1" style="stop-color:#2964AA"/>
	</linearGradient>
	<path fill="url(#SVGID_16_)" d="M1043.174,782.753l-66.172,42.385l40.349,40.349l-42.157,42.157l-40.349-40.349l-42.389,66.176
		l-21.669-67.313c-2.657,2.783-5.416,5.523-8.287,8.216l20.047,62.269c1.238,3.847,4.571,6.608,8.57,7.141
		c0.438,0.057,0.895,0.076,1.333,0.076c3.523,0,6.837-1.771,8.76-4.78l35.423-55.287l31.214,31.195
		c4.038,4.076,10.665,4.076,14.703,0l42.146-42.146c4.075-4.057,4.075-10.646,0-14.703l-31.195-31.214l55.287-35.404
		c3.39-2.171,5.218-6.113,4.704-10.094c-0.514-3.999-3.295-7.332-7.142-8.57l-131.941-42.473v10.918L1043.174,782.753z"/>
	<path fill="#FFFFFF" d="M843.285,780.725c-2.898,2.205-5.781,4.416-8.829,6.539l17.846,55.431c2.789-3.115,5.423-6.282,7.872-9.508
		L843.285,780.725z"/>
	<linearGradient id="SVGID_17_" gradientUnits="userSpaceOnUse" x1="810.4933" y1="811.7101" x2="1053.5784" y2="811.7101">
		<stop  offset="0" style="stop-color:#2695CF"/>
		<stop  offset="0.8467" style="stop-color:#2970B2"/>
		<stop  offset="1" style="stop-color:#2964AA"/>
	</linearGradient>
	<path fill="url(#SVGID_17_)" d="M843.285,780.725c-2.898,2.205-5.781,4.416-8.829,6.539l17.846,55.431
		c2.789-3.115,5.423-6.282,7.872-9.508L843.285,780.725z"/>
	<path fill="#FFFFFF" d="M820.905,711.203l39.259,12.638c2.222-2.927,4.34-5.886,6.269-8.9l-42.354-13.634
		c-3.714-1.181-7.77-0.19-10.532,2.552c-2.762,2.761-3.752,6.818-2.552,10.532l14.066,43.691c3.002-2.255,5.915-4.55,8.715-6.895
		L820.905,711.203z"/>
	<linearGradient id="SVGID_18_" gradientUnits="userSpaceOnUse" x1="810.4933" y1="729.449" x2="1053.5784" y2="729.449">
		<stop  offset="0" style="stop-color:#2695CF"/>
		<stop  offset="0.8467" style="stop-color:#2970B2"/>
		<stop  offset="1" style="stop-color:#2964AA"/>
	</linearGradient>
	<path fill="url(#SVGID_18_)" d="M820.905,711.203l39.259,12.638c2.222-2.927,4.34-5.886,6.269-8.9l-42.354-13.634
		c-3.714-1.181-7.77-0.19-10.532,2.552c-2.762,2.761-3.752,6.818-2.552,10.532l14.066,43.691c3.002-2.255,5.915-4.55,8.715-6.895
		L820.905,711.203z"/>
	<linearGradient id="SVGID_19_" gradientUnits="userSpaceOnUse" x1="428.4434" y1="1211.7736" x2="1211.7773" y2="428.4396">
		<stop  offset="0" style="stop-color:#2964AA"/>
		<stop  offset="1" style="stop-color:#2695CF"/>
	</linearGradient>
	<polygon fill="url(#SVGID_19_)" points="899.225,736.414 914.409,741.302 914.409,730.385 899.225,725.497 	"/>
	<linearGradient id="SVGID_20_" gradientUnits="userSpaceOnUse" x1="50.0006" y1="733.3996" x2="1149.9999" y2="733.3996">
		<stop  offset="0" style="stop-color:#2964AA"/>
		<stop  offset="1" style="stop-color:#2695CF"/>
	</linearGradient>
	<polygon fill="url(#SVGID_20_)" points="899.225,736.414 914.409,741.302 914.409,730.385 899.225,725.497 	"/>
	<linearGradient id="SVGID_21_" gradientUnits="userSpaceOnUse" x1="810.4933" y1="733.3996" x2="1053.5784" y2="733.3996">
		<stop  offset="0" style="stop-color:#2695CF"/>
		<stop  offset="0.8467" style="stop-color:#2970B2"/>
		<stop  offset="1" style="stop-color:#2964AA"/>
	</linearGradient>
	<polygon fill="url(#SVGID_21_)" points="899.225,736.414 914.409,741.302 914.409,730.385 899.225,725.497 	"/>
	<linearGradient id="SVGID_22_" gradientUnits="userSpaceOnUse" x1="471.4993" y1="1254.8295" x2="1254.8333" y2="471.4955">
		<stop  offset="0" style="stop-color:#2964AA"/>
		<stop  offset="1" style="stop-color:#2695CF"/>
	</linearGradient>
	<path fill="url(#SVGID_22_)" d="M870.787,866.159l-5.19-16.124c-2.576,2.973-5.266,5.905-8.107,8.777l5.01,15.562
		C865.371,871.682,868.13,868.942,870.787,866.159z"/>
	<linearGradient id="SVGID_23_" gradientUnits="userSpaceOnUse" x1="50.0006" y1="862.2044" x2="1149.9999" y2="862.2044">
		<stop  offset="0" style="stop-color:#2964AA"/>
		<stop  offset="1" style="stop-color:#2695CF"/>
	</linearGradient>
	<path fill="url(#SVGID_23_)" d="M870.787,866.159l-5.19-16.124c-2.576,2.973-5.266,5.905-8.107,8.777l5.01,15.562
		C865.371,871.682,868.13,868.942,870.787,866.159z"/>
	<linearGradient id="SVGID_24_" gradientUnits="userSpaceOnUse" x1="810.4933" y1="862.2044" x2="1053.5784" y2="862.2044">
		<stop  offset="0" style="stop-color:#2695CF"/>
		<stop  offset="0.8467" style="stop-color:#2970B2"/>
		<stop  offset="1" style="stop-color:#2964AA"/>
	</linearGradient>
	<path fill="url(#SVGID_24_)" d="M870.787,866.159l-5.19-16.124c-2.576,2.973-5.266,5.905-8.107,8.777l5.01,15.562
		C865.371,871.682,868.13,868.942,870.787,866.159z"/>
	<path fill="#FFFFFF" d="M852.302,842.695l5.188,16.117c2.841-2.873,5.531-5.804,8.107-8.777l-5.423-16.847
		C857.725,836.414,855.091,839.58,852.302,842.695z"/>
	<linearGradient id="SVGID_25_" gradientUnits="userSpaceOnUse" x1="50.0006" y1="845.9995" x2="1149.9999" y2="845.9995">
		<stop  offset="0" style="stop-color:#2964AA"/>
		<stop  offset="1" style="stop-color:#2695CF"/>
	</linearGradient>
	<path fill="url(#SVGID_25_)" d="M852.302,842.695l5.188,16.117c2.841-2.873,5.531-5.804,8.107-8.777l-5.423-16.847
		C857.725,836.414,855.091,839.58,852.302,842.695z"/>
	<linearGradient id="SVGID_26_" gradientUnits="userSpaceOnUse" x1="810.4933" y1="845.9995" x2="1053.5784" y2="845.9995">
		<stop  offset="0" style="stop-color:#2695CF"/>
		<stop  offset="0.8467" style="stop-color:#2970B2"/>
		<stop  offset="1" style="stop-color:#2964AA"/>
	</linearGradient>
	<path fill="url(#SVGID_26_)" d="M852.302,842.695l5.188,16.117c2.841-2.873,5.531-5.804,8.107-8.777l-5.423-16.847
		C857.725,836.414,855.091,839.58,852.302,842.695z"/>
	<path fill="#FFFFFF" d="M833.777,751.187c-2.801,2.345-5.713,4.64-8.715,6.895l9.395,29.182c3.048-2.124,5.931-4.335,8.829-6.539
		L833.777,751.187z"/>
	<linearGradient id="SVGID_27_" gradientUnits="userSpaceOnUse" x1="50.0006" y1="769.2256" x2="1149.9999" y2="769.2256">
		<stop  offset="0" style="stop-color:#2964AA"/>
		<stop  offset="1" style="stop-color:#2695CF"/>
	</linearGradient>
	<path fill="url(#SVGID_27_)" d="M833.777,751.187c-2.801,2.345-5.713,4.64-8.715,6.895l9.395,29.182
		c3.048-2.124,5.931-4.335,8.829-6.539L833.777,751.187z"/>
	<linearGradient id="SVGID_28_" gradientUnits="userSpaceOnUse" x1="810.4933" y1="769.2256" x2="1053.5784" y2="769.2256">
		<stop  offset="0" style="stop-color:#2695CF"/>
		<stop  offset="0.8467" style="stop-color:#2970B2"/>
		<stop  offset="1" style="stop-color:#2964AA"/>
	</linearGradient>
	<path fill="url(#SVGID_28_)" d="M833.777,751.187c-2.801,2.345-5.713,4.64-8.715,6.895l9.395,29.182
		c3.048-2.124,5.931-4.335,8.829-6.539L833.777,751.187z"/>
	<path fill="#FFFFFF" d="M866.433,714.941c-1.93,3.013-4.048,5.972-6.269,8.9l39.061,12.574v-10.918L866.433,714.941z"/>
	<linearGradient id="SVGID_29_" gradientUnits="userSpaceOnUse" x1="50.0006" y1="725.6777" x2="1149.9999" y2="725.6777">
		<stop  offset="0" style="stop-color:#2964AA"/>
		<stop  offset="1" style="stop-color:#2695CF"/>
	</linearGradient>
	<path fill="url(#SVGID_29_)" d="M866.433,714.941c-1.93,3.013-4.048,5.972-6.269,8.9l39.061,12.574v-10.918L866.433,714.941z"/>
	<linearGradient id="SVGID_30_" gradientUnits="userSpaceOnUse" x1="810.4933" y1="725.6777" x2="1053.5784" y2="725.6777">
		<stop  offset="0" style="stop-color:#2695CF"/>
		<stop  offset="0.8467" style="stop-color:#2970B2"/>
		<stop  offset="1" style="stop-color:#2964AA"/>
	</linearGradient>
	<path fill="url(#SVGID_30_)" d="M866.433,714.941c-1.93,3.013-4.048,5.972-6.269,8.9l39.061,12.574v-10.918L866.433,714.941z"/>
	<path fill="#FFFFFF" d="M860.164,723.841l-39.259-12.638l12.871,39.984l9.508,29.538l16.888,52.462l5.423,16.847l5.19,16.124
		l21.669,67.313l42.389-66.176l40.349,40.349l42.157-42.157l-40.349-40.349l66.172-42.385l-128.764-41.45l-15.184-4.888
		L860.164,723.841z M1018.983,785.904l-47.593,30.472c-2.647,1.695-4.38,4.514-4.723,7.637c-0.343,3.143,0.761,6.247,2.99,8.475
		l32.985,33.004L975.2,892.935l-33.005-32.985c-2.228-2.228-5.37-3.276-8.475-2.99c-3.124,0.343-5.942,2.076-7.637,4.723
		l-30.491,47.593l-58.582-181.954L1018.983,785.904z"/>
	<linearGradient id="SVGID_31_" gradientUnits="userSpaceOnUse" x1="810.4933" y1="822.3369" x2="1053.5784" y2="822.3369">
		<stop  offset="0" style="stop-color:#2695CF"/>
		<stop  offset="0.8467" style="stop-color:#2970B2"/>
		<stop  offset="1" style="stop-color:#2964AA"/>
	</linearGradient>
	<path fill="url(#SVGID_31_)" d="M860.164,723.841l-39.259-12.638l12.871,39.984l9.508,29.538l16.888,52.462l5.423,16.847
		l5.19,16.124l21.669,67.313l42.389-66.176l40.349,40.349l42.157-42.157l-40.349-40.349l66.172-42.385l-128.764-41.45l-15.184-4.888
		L860.164,723.841z M1018.983,785.904l-47.593,30.472c-2.647,1.695-4.38,4.514-4.723,7.637c-0.343,3.143,0.761,6.247,2.99,8.475
		l32.985,33.004L975.2,892.935l-33.005-32.985c-2.228-2.228-5.37-3.276-8.475-2.99c-3.124,0.343-5.942,2.076-7.637,4.723
		l-30.491,47.593l-58.582-181.954L1018.983,785.904z"/>
</g>
</svg>
